# xmcd
#
# Track frame offsets:
#	150
#	18570
#	35909
#	57673
#	73264
#	92374
#	110683
#	126077
#	148925
#	164046
#	180388
#	202784
#	220767
#	234528
#	253036
#
# Disc length: 3614
#
# Revision: 2
# Processed by: cddbd v1.5.1PL2 Copyright (c) Steve Scherf et al.
# Submitted via: kTunes Lite (development) 1.0patch43.34
#
DISCID=e40e1c0f
DTITLE=Various Artist - Country Hits Vol 184
DYEAR=2006
DGENRE=Karaoke
TTITLE0=Lee Ann Womack - There’s More Where That Came From
TTITLE1=Kenny Chesney - Living In Fast Forward
TTITLE2=Kenny Chesney - Beer In Mexico
TTITLE3=Jason Aldean - Why
TTITLE4=Little Big Town - Boondocks
TTITLE5=Carrie Underwood - Some Hearts
TTITLE6=Trent Tomlinson - Drunker Than Me
TTITLE7=Dierks Bentley - Come A Little Closer
TTITLE8=Montgomery Gentry - She Don't Tell Me To
TTITLE9=Gretchen Wilson - Full Time Job
TTITLE10=Sara Evans - Bible Song
TTITLE11=Randy Travis - Angels
TTITLE12=Gretchen Wilson - Skoal Ring
TTITLE13=Chris Cagle - Miss Me Baby
TTITLE14=Lee Ann Womack - Twenty Years And Two Husbands Ago
EXTD=
EXTT0=
EXTT1=
EXTT2=
EXTT3=
EXTT4=
EXTT5=
EXTT6=
EXTT7=
EXTT8=
EXTT9=
EXTT10=
EXTT11=
EXTT12=
EXTT13=
EXTT14=
PLAYORDER=
